P2 2 2 255 1 2 10 10